<mxfile host="app.diagrams.net" agent="Mozilla/5.0 (X11; Linux x86_64) AppleWebKit/537.36 (KHTML, like Gecko) Chrome/129.0.0.0 Safari/537.36" version="24.8.4">
  <diagram name="Página-1" id="Ts18hOaI6X1N86Q-Riid">
    <mxGraphModel dx="2189" dy="1962" grid="0" gridSize="10" guides="1" tooltips="1" connect="1" arrows="1" fold="1" page="1" pageScale="1" pageWidth="827" pageHeight="1169" math="0" shadow="0">
      <root>
        <mxCell id="0" />
        <mxCell id="1" parent="0" />
        <mxCell id="8dEnHC_HawkJv2hlEM2R-39" style="edgeStyle=orthogonalEdgeStyle;rounded=0;orthogonalLoop=1;jettySize=auto;html=1;exitX=0;exitY=0.25;exitDx=0;exitDy=0;entryX=1;entryY=0.5;entryDx=0;entryDy=0;endArrow=none;endFill=0;" parent="1" source="Dj1RgWxKYQ5l88ZMFCV0-2" target="8dEnHC_HawkJv2hlEM2R-36" edge="1">
          <mxGeometry relative="1" as="geometry" />
        </mxCell>
        <mxCell id="8dEnHC_HawkJv2hlEM2R-41" style="edgeStyle=orthogonalEdgeStyle;rounded=0;orthogonalLoop=1;jettySize=auto;html=1;exitX=0;exitY=0.75;exitDx=0;exitDy=0;entryX=1;entryY=0.5;entryDx=0;entryDy=0;endArrow=none;endFill=0;" parent="1" source="Dj1RgWxKYQ5l88ZMFCV0-2" target="8dEnHC_HawkJv2hlEM2R-40" edge="1">
          <mxGeometry relative="1" as="geometry" />
        </mxCell>
        <mxCell id="Dj1RgWxKYQ5l88ZMFCV0-2" value="Usuário" style="whiteSpace=wrap;html=1;align=center;strokeWidth=1;perimeterSpacing=0;" parent="1" vertex="1">
          <mxGeometry x="430" y="-710" width="180" height="50" as="geometry" />
        </mxCell>
        <mxCell id="Dj1RgWxKYQ5l88ZMFCV0-4" value="&lt;font style=&quot;font-size: 14px;&quot;&gt;ID&lt;/font&gt;" style="text;html=1;align=center;verticalAlign=middle;whiteSpace=wrap;rounded=0;" parent="1" vertex="1">
          <mxGeometry x="400" y="-770" width="60" height="30" as="geometry" />
        </mxCell>
        <mxCell id="Dj1RgWxKYQ5l88ZMFCV0-5" value="" style="endArrow=oval;html=1;rounded=0;startArrow=none;startFill=0;endFill=1;strokeWidth=1;" parent="1" edge="1">
          <mxGeometry width="50" height="50" relative="1" as="geometry">
            <mxPoint x="430" y="-710" as="sourcePoint" />
            <mxPoint x="430" y="-740" as="targetPoint" />
          </mxGeometry>
        </mxCell>
        <mxCell id="Dj1RgWxKYQ5l88ZMFCV0-7" value="&lt;font style=&quot;font-size: 14px;&quot;&gt;Login&lt;/font&gt;" style="text;html=1;align=center;verticalAlign=middle;whiteSpace=wrap;rounded=0;" parent="1" vertex="1">
          <mxGeometry x="560" y="-630" width="60" height="30" as="geometry" />
        </mxCell>
        <mxCell id="Dj1RgWxKYQ5l88ZMFCV0-8" value="" style="endArrow=oval;html=1;rounded=0;startArrow=none;startFill=0;endFill=0;strokeWidth=1;" parent="1" edge="1">
          <mxGeometry width="50" height="50" relative="1" as="geometry">
            <mxPoint x="589" y="-660" as="sourcePoint" />
            <mxPoint x="589" y="-630" as="targetPoint" />
          </mxGeometry>
        </mxCell>
        <mxCell id="Dj1RgWxKYQ5l88ZMFCV0-9" value="&lt;font style=&quot;font-size: 14px;&quot;&gt;Senha&lt;/font&gt;" style="text;html=1;align=center;verticalAlign=middle;whiteSpace=wrap;rounded=0;" parent="1" vertex="1">
          <mxGeometry x="620" y="-650" width="60" height="30" as="geometry" />
        </mxCell>
        <mxCell id="Dj1RgWxKYQ5l88ZMFCV0-10" value="" style="endArrow=oval;html=1;rounded=0;startArrow=none;startFill=0;endFill=0;strokeWidth=1;" parent="1" edge="1">
          <mxGeometry width="50" height="50" relative="1" as="geometry">
            <mxPoint x="610" y="-710" as="sourcePoint" />
            <mxPoint x="610" y="-740" as="targetPoint" />
          </mxGeometry>
        </mxCell>
        <mxCell id="Dj1RgWxKYQ5l88ZMFCV0-11" value="&lt;font style=&quot;font-size: 14px;&quot;&gt;Data_Ingresso&lt;/font&gt;" style="text;html=1;align=center;verticalAlign=middle;whiteSpace=wrap;rounded=0;" parent="1" vertex="1">
          <mxGeometry x="590" y="-770" width="60" height="30" as="geometry" />
        </mxCell>
        <mxCell id="Dj1RgWxKYQ5l88ZMFCV0-12" value="" style="endArrow=oval;html=1;rounded=0;startArrow=none;startFill=0;endFill=0;strokeWidth=1;entryX=0;entryY=0.5;entryDx=0;entryDy=0;" parent="1" target="Dj1RgWxKYQ5l88ZMFCV0-9" edge="1">
          <mxGeometry width="50" height="50" relative="1" as="geometry">
            <mxPoint x="609.5" y="-670" as="sourcePoint" />
            <mxPoint x="620" y="-640" as="targetPoint" />
            <Array as="points">
              <mxPoint x="620.5" y="-669.5" />
            </Array>
          </mxGeometry>
        </mxCell>
        <mxCell id="Dj1RgWxKYQ5l88ZMFCV0-13" value="&lt;font style=&quot;font-size: 14px;&quot;&gt;Email&lt;/font&gt;" style="text;html=1;align=center;verticalAlign=middle;whiteSpace=wrap;rounded=0;" parent="1" vertex="1">
          <mxGeometry x="390" y="-630" width="60" height="30" as="geometry" />
        </mxCell>
        <mxCell id="Dj1RgWxKYQ5l88ZMFCV0-14" value="Arquivo" style="whiteSpace=wrap;html=1;align=center;strokeWidth=1;perimeterSpacing=0;" parent="1" vertex="1">
          <mxGeometry x="950" y="-710" width="250" height="50" as="geometry" />
        </mxCell>
        <mxCell id="Dj1RgWxKYQ5l88ZMFCV0-15" value="&lt;font style=&quot;font-size: 14px;&quot;&gt;ID&lt;/font&gt;" style="text;html=1;align=center;verticalAlign=middle;whiteSpace=wrap;rounded=0;" parent="1" vertex="1">
          <mxGeometry x="920" y="-770" width="60" height="30" as="geometry" />
        </mxCell>
        <mxCell id="Dj1RgWxKYQ5l88ZMFCV0-16" value="" style="endArrow=oval;html=1;rounded=0;startArrow=none;startFill=0;endFill=1;strokeWidth=1;" parent="1" edge="1">
          <mxGeometry width="50" height="50" relative="1" as="geometry">
            <mxPoint x="950" y="-710" as="sourcePoint" />
            <mxPoint x="950" y="-740" as="targetPoint" />
          </mxGeometry>
        </mxCell>
        <mxCell id="Dj1RgWxKYQ5l88ZMFCV0-17" value="" style="endArrow=oval;html=1;rounded=0;startArrow=none;startFill=0;endFill=0;strokeWidth=1;" parent="1" target="Dj1RgWxKYQ5l88ZMFCV0-18" edge="1">
          <mxGeometry width="50" height="50" relative="1" as="geometry">
            <mxPoint x="980" y="-710" as="sourcePoint" />
            <mxPoint x="980" y="-740" as="targetPoint" />
          </mxGeometry>
        </mxCell>
        <mxCell id="Dj1RgWxKYQ5l88ZMFCV0-18" value="&lt;font style=&quot;font-size: 14px;&quot;&gt;Nome&lt;/font&gt;" style="text;html=1;align=center;verticalAlign=middle;whiteSpace=wrap;rounded=0;" parent="1" vertex="1">
          <mxGeometry x="950" y="-770" width="60" height="30" as="geometry" />
        </mxCell>
        <mxCell id="Dj1RgWxKYQ5l88ZMFCV0-19" value="" style="endArrow=oval;html=1;rounded=0;startArrow=none;startFill=0;endFill=0;strokeWidth=1;" parent="1" edge="1">
          <mxGeometry width="50" height="50" relative="1" as="geometry">
            <mxPoint x="1020" y="-710" as="sourcePoint" />
            <mxPoint x="1020" y="-740" as="targetPoint" />
          </mxGeometry>
        </mxCell>
        <mxCell id="Dj1RgWxKYQ5l88ZMFCV0-20" value="&lt;font style=&quot;font-size: 14px;&quot;&gt;Tipo&lt;/font&gt;" style="text;html=1;align=center;verticalAlign=middle;whiteSpace=wrap;rounded=0;" parent="1" vertex="1">
          <mxGeometry x="990" y="-770" width="60" height="30" as="geometry" />
        </mxCell>
        <mxCell id="Dj1RgWxKYQ5l88ZMFCV0-21" value="" style="endArrow=oval;html=1;rounded=0;startArrow=none;startFill=0;endFill=0;strokeWidth=1;" parent="1" edge="1">
          <mxGeometry width="50" height="50" relative="1" as="geometry">
            <mxPoint x="980" y="-660" as="sourcePoint" />
            <mxPoint x="980" y="-630" as="targetPoint" />
          </mxGeometry>
        </mxCell>
        <mxCell id="Dj1RgWxKYQ5l88ZMFCV0-22" value="&lt;font style=&quot;font-size: 14px;&quot;&gt;Permissoes&lt;/font&gt;" style="text;html=1;align=center;verticalAlign=middle;whiteSpace=wrap;rounded=0;" parent="1" vertex="1">
          <mxGeometry x="950" y="-630" width="60" height="30" as="geometry" />
        </mxCell>
        <mxCell id="Dj1RgWxKYQ5l88ZMFCV0-23" value="" style="endArrow=oval;html=1;rounded=0;startArrow=none;startFill=0;endFill=0;strokeWidth=1;" parent="1" edge="1">
          <mxGeometry width="50" height="50" relative="1" as="geometry">
            <mxPoint x="1149.5" y="-710" as="sourcePoint" />
            <mxPoint x="1149.5" y="-740" as="targetPoint" />
          </mxGeometry>
        </mxCell>
        <mxCell id="Dj1RgWxKYQ5l88ZMFCV0-24" value="&lt;font style=&quot;font-size: 14px;&quot;&gt;Tamanho&lt;/font&gt;" style="text;html=1;align=center;verticalAlign=middle;whiteSpace=wrap;rounded=0;" parent="1" vertex="1">
          <mxGeometry x="1120" y="-770" width="60" height="30" as="geometry" />
        </mxCell>
        <mxCell id="Dj1RgWxKYQ5l88ZMFCV0-25" value="" style="endArrow=oval;html=1;rounded=0;startArrow=none;startFill=0;endFill=0;strokeWidth=1;" parent="1" edge="1">
          <mxGeometry width="50" height="50" relative="1" as="geometry">
            <mxPoint x="1200" y="-710" as="sourcePoint" />
            <mxPoint x="1220" y="-720" as="targetPoint" />
          </mxGeometry>
        </mxCell>
        <mxCell id="Dj1RgWxKYQ5l88ZMFCV0-26" value="&lt;font style=&quot;font-size: 14px;&quot;&gt;Ultima_Modificacao&lt;/font&gt;" style="text;html=1;align=center;verticalAlign=middle;whiteSpace=wrap;rounded=0;" parent="1" vertex="1">
          <mxGeometry x="1200" y="-750" width="60" height="30" as="geometry" />
        </mxCell>
        <mxCell id="Dj1RgWxKYQ5l88ZMFCV0-27" value="" style="endArrow=oval;html=1;rounded=0;startArrow=none;startFill=0;endFill=0;strokeWidth=1;" parent="1" edge="1">
          <mxGeometry width="50" height="50" relative="1" as="geometry">
            <mxPoint x="1200" y="-685.5" as="sourcePoint" />
            <mxPoint x="1220" y="-685.5" as="targetPoint" />
          </mxGeometry>
        </mxCell>
        <mxCell id="Dj1RgWxKYQ5l88ZMFCV0-28" value="&lt;font style=&quot;font-size: 14px;&quot;&gt;Localizacao&lt;/font&gt;" style="text;html=1;align=center;verticalAlign=middle;whiteSpace=wrap;rounded=0;" parent="1" vertex="1">
          <mxGeometry x="1240" y="-700" width="60" height="30" as="geometry" />
        </mxCell>
        <mxCell id="Dj1RgWxKYQ5l88ZMFCV0-29" value="" style="endArrow=oval;html=1;rounded=0;startArrow=none;startFill=0;endFill=0;strokeWidth=1;" parent="1" edge="1">
          <mxGeometry width="50" height="50" relative="1" as="geometry">
            <mxPoint x="1200" y="-660" as="sourcePoint" />
            <mxPoint x="1230" y="-650" as="targetPoint" />
          </mxGeometry>
        </mxCell>
        <mxCell id="Dj1RgWxKYQ5l88ZMFCV0-31" value="&lt;font style=&quot;font-size: 14px;&quot;&gt;URL&lt;/font&gt;" style="text;html=1;align=center;verticalAlign=middle;whiteSpace=wrap;rounded=0;" parent="1" vertex="1">
          <mxGeometry x="1220" y="-660" width="60" height="30" as="geometry" />
        </mxCell>
        <mxCell id="Dj1RgWxKYQ5l88ZMFCV0-33" value="&lt;font style=&quot;font-size: 14px;&quot;&gt;ID_Arquivo&lt;/font&gt;" style="text;html=1;align=center;verticalAlign=middle;whiteSpace=wrap;rounded=0;" parent="1" vertex="1">
          <mxGeometry x="327" y="-1073" width="60" height="30" as="geometry" />
        </mxCell>
        <mxCell id="Dj1RgWxKYQ5l88ZMFCV0-34" value="" style="endArrow=oval;html=1;rounded=0;startArrow=none;startFill=0;endFill=1;strokeWidth=1;" parent="1" edge="1">
          <mxGeometry width="50" height="50" relative="1" as="geometry">
            <mxPoint x="430" y="-1057" as="sourcePoint" />
            <mxPoint x="399.5" y="-1057" as="targetPoint" />
          </mxGeometry>
        </mxCell>
        <mxCell id="Dj1RgWxKYQ5l88ZMFCV0-36" value="&lt;font style=&quot;font-size: 14px;&quot;&gt;ID_Receptor&lt;/font&gt;" style="text;html=1;align=center;verticalAlign=middle;whiteSpace=wrap;rounded=0;" parent="1" vertex="1">
          <mxGeometry x="547" y="-1138" width="60" height="30" as="geometry" />
        </mxCell>
        <mxCell id="Dj1RgWxKYQ5l88ZMFCV0-37" value="" style="endArrow=oval;html=1;rounded=0;startArrow=none;startFill=0;endFill=1;strokeWidth=1;" parent="1" edge="1">
          <mxGeometry width="50" height="50" relative="1" as="geometry">
            <mxPoint x="450.25" y="-1071" as="sourcePoint" />
            <mxPoint x="450" y="-1096" as="targetPoint" />
          </mxGeometry>
        </mxCell>
        <mxCell id="Dj1RgWxKYQ5l88ZMFCV0-38" value="&lt;font style=&quot;font-size: 14px;&quot;&gt;ID_Dono&lt;/font&gt;" style="text;html=1;align=center;verticalAlign=middle;whiteSpace=wrap;rounded=0;" parent="1" vertex="1">
          <mxGeometry x="421" y="-1132" width="60" height="30" as="geometry" />
        </mxCell>
        <mxCell id="Dj1RgWxKYQ5l88ZMFCV0-39" value="" style="endArrow=oval;html=1;rounded=0;startArrow=none;startFill=0;endFill=1;strokeWidth=1;" parent="1" edge="1">
          <mxGeometry width="50" height="50" relative="1" as="geometry">
            <mxPoint x="577" y="-1069" as="sourcePoint" />
            <mxPoint x="577" y="-1098" as="targetPoint" />
          </mxGeometry>
        </mxCell>
        <mxCell id="Dj1RgWxKYQ5l88ZMFCV0-41" value="" style="endArrow=oval;html=1;rounded=0;startArrow=none;startFill=0;endFill=0;strokeWidth=1;" parent="1" edge="1">
          <mxGeometry width="50" height="50" relative="1" as="geometry">
            <mxPoint x="607" y="-1058.5" as="sourcePoint" />
            <mxPoint x="637.5" y="-1058.5" as="targetPoint" />
          </mxGeometry>
        </mxCell>
        <mxCell id="Dj1RgWxKYQ5l88ZMFCV0-42" value="&lt;font style=&quot;font-size: 14px;&quot;&gt;Data&lt;/font&gt;" style="text;html=1;align=center;verticalAlign=middle;whiteSpace=wrap;rounded=0;" parent="1" vertex="1">
          <mxGeometry x="629.5" y="-1073" width="60" height="30" as="geometry" />
        </mxCell>
        <mxCell id="gyq8oH-FY3zFHfNfD0Om-5" style="edgeStyle=orthogonalEdgeStyle;rounded=0;orthogonalLoop=1;jettySize=auto;html=1;exitX=0.5;exitY=1;exitDx=0;exitDy=0;exitPerimeter=0;entryX=0.5;entryY=0;entryDx=0;entryDy=0;endArrow=none;endFill=0;" parent="1" source="Dj1RgWxKYQ5l88ZMFCV0-43" target="Dj1RgWxKYQ5l88ZMFCV0-2" edge="1">
          <mxGeometry relative="1" as="geometry" />
        </mxCell>
        <mxCell id="gyq8oH-FY3zFHfNfD0Om-7" style="edgeStyle=orthogonalEdgeStyle;rounded=0;orthogonalLoop=1;jettySize=auto;html=1;exitX=0.5;exitY=0;exitDx=0;exitDy=0;exitPerimeter=0;entryX=0.5;entryY=1;entryDx=0;entryDy=0;endArrow=none;endFill=0;" parent="1" source="Dj1RgWxKYQ5l88ZMFCV0-43" target="gyq8oH-FY3zFHfNfD0Om-3" edge="1">
          <mxGeometry relative="1" as="geometry" />
        </mxCell>
        <mxCell id="Dj1RgWxKYQ5l88ZMFCV0-43" value="COMPARTILHA" style="strokeWidth=1;html=1;shape=mxgraph.flowchart.decision;whiteSpace=wrap;fillColor=default;" parent="1" vertex="1">
          <mxGeometry x="462" y="-890" width="115" height="50" as="geometry" />
        </mxCell>
        <mxCell id="8dEnHC_HawkJv2hlEM2R-37" style="edgeStyle=orthogonalEdgeStyle;rounded=0;orthogonalLoop=1;jettySize=auto;html=1;exitX=0.5;exitY=1;exitDx=0;exitDy=0;entryX=0;entryY=0.5;entryDx=0;entryDy=0;endArrow=none;endFill=0;" parent="1" source="Dj1RgWxKYQ5l88ZMFCV0-45" target="8dEnHC_HawkJv2hlEM2R-36" edge="1">
          <mxGeometry relative="1" as="geometry" />
        </mxCell>
        <mxCell id="Dj1RgWxKYQ5l88ZMFCV0-45" value="Comentário" style="whiteSpace=wrap;html=1;align=center;strokeWidth=1;perimeterSpacing=0;" parent="1" vertex="1">
          <mxGeometry x="45" y="-830" width="150" height="50" as="geometry" />
        </mxCell>
        <mxCell id="Dj1RgWxKYQ5l88ZMFCV0-46" value="&lt;font style=&quot;font-size: 14px;&quot;&gt;ID&lt;/font&gt;" style="text;html=1;align=center;verticalAlign=middle;whiteSpace=wrap;rounded=0;" parent="1" vertex="1">
          <mxGeometry x="15" y="-890" width="60" height="30" as="geometry" />
        </mxCell>
        <mxCell id="Dj1RgWxKYQ5l88ZMFCV0-47" value="" style="endArrow=oval;html=1;rounded=0;startArrow=none;startFill=0;endFill=1;strokeWidth=1;" parent="1" edge="1">
          <mxGeometry width="50" height="50" relative="1" as="geometry">
            <mxPoint x="45" y="-830" as="sourcePoint" />
            <mxPoint x="45" y="-860" as="targetPoint" />
          </mxGeometry>
        </mxCell>
        <mxCell id="Dj1RgWxKYQ5l88ZMFCV0-50" value="" style="endArrow=oval;html=1;rounded=0;startArrow=none;startFill=0;endFill=0;strokeWidth=1;" parent="1" edge="1">
          <mxGeometry width="50" height="50" relative="1" as="geometry">
            <mxPoint x="94.5" y="-830" as="sourcePoint" />
            <mxPoint x="94.5" y="-860" as="targetPoint" />
          </mxGeometry>
        </mxCell>
        <mxCell id="Dj1RgWxKYQ5l88ZMFCV0-51" value="&lt;font style=&quot;font-size: 14px;&quot;&gt;Conteudo&lt;/font&gt;" style="text;html=1;align=center;verticalAlign=middle;whiteSpace=wrap;rounded=0;" parent="1" vertex="1">
          <mxGeometry x="65" y="-890" width="60" height="30" as="geometry" />
        </mxCell>
        <mxCell id="Dj1RgWxKYQ5l88ZMFCV0-52" value="" style="endArrow=oval;html=1;rounded=0;startArrow=none;startFill=0;endFill=0;strokeWidth=1;" parent="1" edge="1">
          <mxGeometry width="50" height="50" relative="1" as="geometry">
            <mxPoint x="154.5" y="-830" as="sourcePoint" />
            <mxPoint x="154.5" y="-860" as="targetPoint" />
          </mxGeometry>
        </mxCell>
        <mxCell id="Dj1RgWxKYQ5l88ZMFCV0-53" value="&lt;font style=&quot;font-size: 14px;&quot;&gt;Data&lt;/font&gt;" style="text;html=1;align=center;verticalAlign=middle;whiteSpace=wrap;rounded=0;" parent="1" vertex="1">
          <mxGeometry x="125" y="-890" width="60" height="30" as="geometry" />
        </mxCell>
        <mxCell id="Dj1RgWxKYQ5l88ZMFCV0-54" value="" style="endArrow=oval;html=1;rounded=0;startArrow=none;startFill=0;endFill=0;strokeWidth=1;" parent="1" edge="1">
          <mxGeometry width="50" height="50" relative="1" as="geometry">
            <mxPoint x="194.5" y="-830" as="sourcePoint" />
            <mxPoint x="195" y="-860" as="targetPoint" />
          </mxGeometry>
        </mxCell>
        <mxCell id="Dj1RgWxKYQ5l88ZMFCV0-55" value="&lt;font style=&quot;font-size: 14px;&quot;&gt;Hora&lt;/font&gt;" style="text;html=1;align=center;verticalAlign=middle;whiteSpace=wrap;rounded=0;" parent="1" vertex="1">
          <mxGeometry x="165" y="-890" width="60" height="30" as="geometry" />
        </mxCell>
        <mxCell id="8dEnHC_HawkJv2hlEM2R-42" style="edgeStyle=orthogonalEdgeStyle;rounded=0;orthogonalLoop=1;jettySize=auto;html=1;exitX=1;exitY=0.5;exitDx=0;exitDy=0;entryX=0;entryY=0.5;entryDx=0;entryDy=0;endArrow=none;endFill=0;" parent="1" source="Dj1RgWxKYQ5l88ZMFCV0-56" target="8dEnHC_HawkJv2hlEM2R-40" edge="1">
          <mxGeometry relative="1" as="geometry" />
        </mxCell>
        <mxCell id="8dEnHC_HawkJv2hlEM2R-44" style="edgeStyle=orthogonalEdgeStyle;rounded=0;orthogonalLoop=1;jettySize=auto;html=1;exitX=0.5;exitY=1;exitDx=0;exitDy=0;entryX=0.5;entryY=0;entryDx=0;entryDy=0;endArrow=none;endFill=0;" parent="1" source="Dj1RgWxKYQ5l88ZMFCV0-56" target="8dEnHC_HawkJv2hlEM2R-43" edge="1">
          <mxGeometry relative="1" as="geometry" />
        </mxCell>
        <mxCell id="Dj1RgWxKYQ5l88ZMFCV0-56" value="Instituição" style="whiteSpace=wrap;html=1;align=center;strokeWidth=1;perimeterSpacing=0;" parent="1" vertex="1">
          <mxGeometry x="-150" y="-460" width="150" height="50" as="geometry" />
        </mxCell>
        <mxCell id="Dj1RgWxKYQ5l88ZMFCV0-57" value="&lt;font style=&quot;font-size: 14px;&quot;&gt;ID&lt;/font&gt;" style="text;html=1;align=center;verticalAlign=middle;whiteSpace=wrap;rounded=0;" parent="1" vertex="1">
          <mxGeometry x="-180" y="-520" width="60" height="30" as="geometry" />
        </mxCell>
        <mxCell id="Dj1RgWxKYQ5l88ZMFCV0-58" value="" style="endArrow=oval;html=1;rounded=0;startArrow=none;startFill=0;endFill=1;strokeWidth=1;" parent="1" edge="1">
          <mxGeometry width="50" height="50" relative="1" as="geometry">
            <mxPoint x="-150" y="-460" as="sourcePoint" />
            <mxPoint x="-150" y="-490" as="targetPoint" />
          </mxGeometry>
        </mxCell>
        <mxCell id="Dj1RgWxKYQ5l88ZMFCV0-59" value="" style="endArrow=oval;html=1;rounded=0;startArrow=none;startFill=0;endFill=0;strokeWidth=1;" parent="1" edge="1">
          <mxGeometry width="50" height="50" relative="1" as="geometry">
            <mxPoint x="-116" y="-460" as="sourcePoint" />
            <mxPoint x="-116" y="-490" as="targetPoint" />
          </mxGeometry>
        </mxCell>
        <mxCell id="Dj1RgWxKYQ5l88ZMFCV0-60" value="&lt;font style=&quot;font-size: 14px;&quot;&gt;Nome&lt;/font&gt;" style="text;html=1;align=center;verticalAlign=middle;whiteSpace=wrap;rounded=0;" parent="1" vertex="1">
          <mxGeometry x="-146" y="-520" width="60" height="30" as="geometry" />
        </mxCell>
        <mxCell id="Dj1RgWxKYQ5l88ZMFCV0-61" value="" style="endArrow=oval;html=1;rounded=0;startArrow=none;startFill=0;endFill=0;strokeWidth=1;" parent="1" edge="1">
          <mxGeometry width="50" height="50" relative="1" as="geometry">
            <mxPoint x="-50.5" y="-460" as="sourcePoint" />
            <mxPoint x="-50" y="-490" as="targetPoint" />
          </mxGeometry>
        </mxCell>
        <mxCell id="Dj1RgWxKYQ5l88ZMFCV0-62" value="&lt;font style=&quot;font-size: 14px;&quot;&gt;Causa_Social&lt;/font&gt;" style="text;html=1;align=center;verticalAlign=middle;whiteSpace=wrap;rounded=0;" parent="1" vertex="1">
          <mxGeometry x="-80" y="-520" width="60" height="30" as="geometry" />
        </mxCell>
        <mxCell id="Dj1RgWxKYQ5l88ZMFCV0-63" value="" style="endArrow=oval;html=1;rounded=0;startArrow=none;startFill=0;endFill=0;strokeWidth=1;" parent="1" edge="1">
          <mxGeometry width="50" height="50" relative="1" as="geometry">
            <mxPoint x="-0.5" y="-460" as="sourcePoint" />
            <mxPoint x="20" y="-470" as="targetPoint" />
          </mxGeometry>
        </mxCell>
        <mxCell id="Dj1RgWxKYQ5l88ZMFCV0-64" value="&lt;font style=&quot;font-size: 14px;&quot;&gt;Endereco&lt;/font&gt;" style="text;html=1;align=center;verticalAlign=middle;whiteSpace=wrap;rounded=0;" parent="1" vertex="1">
          <mxGeometry x="-10" y="-500" width="60" height="30" as="geometry" />
        </mxCell>
        <mxCell id="Dj1RgWxKYQ5l88ZMFCV0-65" value="Plano" style="whiteSpace=wrap;html=1;align=center;strokeWidth=1;perimeterSpacing=0;" parent="1" vertex="1">
          <mxGeometry x="-200" y="-190" width="250" height="50" as="geometry" />
        </mxCell>
        <mxCell id="Dj1RgWxKYQ5l88ZMFCV0-66" value="&lt;font style=&quot;font-size: 14px;&quot;&gt;ID&lt;/font&gt;" style="text;html=1;align=center;verticalAlign=middle;whiteSpace=wrap;rounded=0;" parent="1" vertex="1">
          <mxGeometry x="-230" y="-100" width="60" height="30" as="geometry" />
        </mxCell>
        <mxCell id="Dj1RgWxKYQ5l88ZMFCV0-67" value="" style="endArrow=oval;html=1;rounded=0;startArrow=none;startFill=0;endFill=1;strokeWidth=1;" parent="1" edge="1">
          <mxGeometry width="50" height="50" relative="1" as="geometry">
            <mxPoint x="-200" y="-140" as="sourcePoint" />
            <mxPoint x="-200" y="-100" as="targetPoint" />
          </mxGeometry>
        </mxCell>
        <mxCell id="Dj1RgWxKYQ5l88ZMFCV0-68" value="" style="endArrow=oval;html=1;rounded=0;startArrow=none;startFill=0;endFill=0;strokeWidth=1;" parent="1" edge="1">
          <mxGeometry width="50" height="50" relative="1" as="geometry">
            <mxPoint x="-160.5" y="-140" as="sourcePoint" />
            <mxPoint x="-160.5" y="-100" as="targetPoint" />
          </mxGeometry>
        </mxCell>
        <mxCell id="Dj1RgWxKYQ5l88ZMFCV0-69" value="&lt;font style=&quot;font-size: 14px;&quot;&gt;Nome&lt;/font&gt;" style="text;html=1;align=center;verticalAlign=middle;whiteSpace=wrap;rounded=0;" parent="1" vertex="1">
          <mxGeometry x="-190" y="-100" width="60" height="30" as="geometry" />
        </mxCell>
        <mxCell id="Dj1RgWxKYQ5l88ZMFCV0-70" value="" style="endArrow=oval;html=1;rounded=0;startArrow=none;startFill=0;endFill=0;strokeWidth=1;" parent="1" edge="1">
          <mxGeometry width="50" height="50" relative="1" as="geometry">
            <mxPoint x="-100.5" y="-140" as="sourcePoint" />
            <mxPoint x="-100.5" y="-100" as="targetPoint" />
          </mxGeometry>
        </mxCell>
        <mxCell id="Dj1RgWxKYQ5l88ZMFCV0-71" value="&lt;font style=&quot;font-size: 14px;&quot;&gt;Duracao&lt;/font&gt;" style="text;html=1;align=center;verticalAlign=middle;whiteSpace=wrap;rounded=0;" parent="1" vertex="1">
          <mxGeometry x="-130" y="-100" width="60" height="30" as="geometry" />
        </mxCell>
        <mxCell id="Dj1RgWxKYQ5l88ZMFCV0-72" value="" style="endArrow=oval;html=1;rounded=0;startArrow=none;startFill=0;endFill=0;strokeWidth=1;" parent="1" edge="1">
          <mxGeometry width="50" height="50" relative="1" as="geometry">
            <mxPoint x="-10.5" y="-140" as="sourcePoint" />
            <mxPoint x="-10.5" y="-100" as="targetPoint" />
          </mxGeometry>
        </mxCell>
        <mxCell id="Dj1RgWxKYQ5l88ZMFCV0-73" value="&lt;font style=&quot;font-size: 14px;&quot;&gt;Data_Aquisicao&lt;/font&gt;" style="text;html=1;align=center;verticalAlign=middle;whiteSpace=wrap;rounded=0;" parent="1" vertex="1">
          <mxGeometry x="-40" y="-100" width="60" height="30" as="geometry" />
        </mxCell>
        <mxCell id="Dj1RgWxKYQ5l88ZMFCV0-76" value="" style="endArrow=oval;html=1;rounded=0;startArrow=none;startFill=0;endFill=0;strokeWidth=1;" parent="1" edge="1">
          <mxGeometry width="50" height="50" relative="1" as="geometry">
            <mxPoint x="50" y="-145.5" as="sourcePoint" />
            <mxPoint x="85" y="-145.5" as="targetPoint" />
          </mxGeometry>
        </mxCell>
        <mxCell id="Dj1RgWxKYQ5l88ZMFCV0-77" value="&lt;font style=&quot;font-size: 14px;&quot;&gt;Espaco_Usuario&lt;/font&gt;" style="text;html=1;align=center;verticalAlign=middle;whiteSpace=wrap;rounded=0;" parent="1" vertex="1">
          <mxGeometry x="115" y="-160" width="60" height="30" as="geometry" />
        </mxCell>
        <mxCell id="Dj1RgWxKYQ5l88ZMFCV0-82" value="Administrador" style="whiteSpace=wrap;html=1;align=center;strokeWidth=1;perimeterSpacing=0;" parent="1" vertex="1">
          <mxGeometry x="408" y="-140" width="180" height="50" as="geometry" />
        </mxCell>
        <mxCell id="Dj1RgWxKYQ5l88ZMFCV0-83" value="&lt;font style=&quot;font-size: 14px;&quot;&gt;ID&lt;/font&gt;" style="text;html=1;align=center;verticalAlign=middle;whiteSpace=wrap;rounded=0;" parent="1" vertex="1">
          <mxGeometry x="377.5" y="-50" width="60" height="30" as="geometry" />
        </mxCell>
        <mxCell id="Dj1RgWxKYQ5l88ZMFCV0-84" value="" style="endArrow=oval;html=1;rounded=0;startArrow=none;startFill=0;endFill=1;strokeWidth=1;" parent="1" edge="1">
          <mxGeometry width="50" height="50" relative="1" as="geometry">
            <mxPoint x="408" y="-90" as="sourcePoint" />
            <mxPoint x="408" y="-50" as="targetPoint" />
          </mxGeometry>
        </mxCell>
        <mxCell id="Dj1RgWxKYQ5l88ZMFCV0-86" value="&lt;font style=&quot;font-size: 14px;&quot;&gt;Login&lt;/font&gt;" style="text;html=1;align=center;verticalAlign=middle;whiteSpace=wrap;rounded=0;" parent="1" vertex="1">
          <mxGeometry x="418" y="-50" width="60" height="30" as="geometry" />
        </mxCell>
        <mxCell id="Dj1RgWxKYQ5l88ZMFCV0-87" value="" style="endArrow=oval;html=1;rounded=0;startArrow=none;startFill=0;endFill=0;strokeWidth=1;" parent="1" edge="1">
          <mxGeometry width="50" height="50" relative="1" as="geometry">
            <mxPoint x="447.5" y="-90" as="sourcePoint" />
            <mxPoint x="447" y="-50" as="targetPoint" />
          </mxGeometry>
        </mxCell>
        <mxCell id="Dj1RgWxKYQ5l88ZMFCV0-88" value="&lt;font style=&quot;font-size: 14px;&quot;&gt;Senha&lt;/font&gt;" style="text;html=1;align=center;verticalAlign=middle;whiteSpace=wrap;rounded=0;" parent="1" vertex="1">
          <mxGeometry x="473.5" y="-50" width="60" height="30" as="geometry" />
        </mxCell>
        <mxCell id="Dj1RgWxKYQ5l88ZMFCV0-89" value="" style="endArrow=oval;html=1;rounded=0;startArrow=none;startFill=0;endFill=0;strokeWidth=1;" parent="1" edge="1">
          <mxGeometry width="50" height="50" relative="1" as="geometry">
            <mxPoint x="587.5" y="-105.5" as="sourcePoint" />
            <mxPoint x="627.5" y="-105.5" as="targetPoint" />
          </mxGeometry>
        </mxCell>
        <mxCell id="Dj1RgWxKYQ5l88ZMFCV0-90" value="&lt;font style=&quot;font-size: 14px;&quot;&gt;Data_Ingresso&lt;/font&gt;" style="text;html=1;align=center;verticalAlign=middle;whiteSpace=wrap;rounded=0;" parent="1" vertex="1">
          <mxGeometry x="648" y="-120" width="60" height="30" as="geometry" />
        </mxCell>
        <mxCell id="Dj1RgWxKYQ5l88ZMFCV0-91" value="" style="endArrow=oval;html=1;rounded=0;startArrow=none;startFill=0;endFill=0;strokeWidth=1;" parent="1" edge="1">
          <mxGeometry width="50" height="50" relative="1" as="geometry">
            <mxPoint x="558" y="-90" as="sourcePoint" />
            <mxPoint x="558" y="-50" as="targetPoint" />
          </mxGeometry>
        </mxCell>
        <mxCell id="Dj1RgWxKYQ5l88ZMFCV0-92" value="&lt;font style=&quot;font-size: 14px;&quot;&gt;Email&lt;/font&gt;" style="text;html=1;align=center;verticalAlign=middle;whiteSpace=wrap;rounded=0;" parent="1" vertex="1">
          <mxGeometry x="528" y="-50" width="60" height="30" as="geometry" />
        </mxCell>
        <mxCell id="Dj1RgWxKYQ5l88ZMFCV0-93" value="" style="endArrow=oval;html=1;rounded=0;startArrow=none;startFill=0;endFill=1;strokeWidth=1;" parent="1" edge="1">
          <mxGeometry width="50" height="50" relative="1" as="geometry">
            <mxPoint x="410" y="-95.5" as="sourcePoint" />
            <mxPoint x="377.5" y="-95" as="targetPoint" />
          </mxGeometry>
        </mxCell>
        <mxCell id="Dj1RgWxKYQ5l88ZMFCV0-94" value="&lt;font style=&quot;font-size: 14px;&quot;&gt;ID_Adm&lt;/font&gt;" style="text;html=1;align=center;verticalAlign=middle;whiteSpace=wrap;rounded=0;" parent="1" vertex="1">
          <mxGeometry x="310" y="-110" width="60" height="30" as="geometry" />
        </mxCell>
        <mxCell id="Dj1RgWxKYQ5l88ZMFCV0-96" value="&lt;font style=&quot;font-size: 14px;&quot;&gt;ID&lt;/font&gt;" style="text;html=1;align=center;verticalAlign=middle;whiteSpace=wrap;rounded=0;" parent="1" vertex="1">
          <mxGeometry x="260" y="-410" width="60" height="30" as="geometry" />
        </mxCell>
        <mxCell id="Dj1RgWxKYQ5l88ZMFCV0-97" value="" style="endArrow=oval;html=1;rounded=0;startArrow=none;startFill=0;endFill=1;strokeWidth=1;" parent="1" edge="1">
          <mxGeometry width="50" height="50" relative="1" as="geometry">
            <mxPoint x="290" y="-350" as="sourcePoint" />
            <mxPoint x="290" y="-380" as="targetPoint" />
          </mxGeometry>
        </mxCell>
        <mxCell id="Dj1RgWxKYQ5l88ZMFCV0-98" value="" style="endArrow=oval;html=1;rounded=0;startArrow=none;startFill=0;endFill=0;strokeWidth=1;" parent="1" edge="1">
          <mxGeometry width="50" height="50" relative="1" as="geometry">
            <mxPoint x="360" y="-340" as="sourcePoint" />
            <mxPoint x="360" y="-370" as="targetPoint" />
          </mxGeometry>
        </mxCell>
        <mxCell id="Dj1RgWxKYQ5l88ZMFCV0-99" value="&lt;font style=&quot;font-size: 14px;&quot;&gt;Dia&lt;/font&gt;" style="text;html=1;align=center;verticalAlign=middle;whiteSpace=wrap;rounded=0;" parent="1" vertex="1">
          <mxGeometry x="330" y="-400" width="60" height="30" as="geometry" />
        </mxCell>
        <mxCell id="Dj1RgWxKYQ5l88ZMFCV0-100" value="" style="endArrow=oval;html=1;rounded=0;startArrow=none;startFill=0;endFill=0;strokeWidth=1;" parent="1" edge="1">
          <mxGeometry width="50" height="50" relative="1" as="geometry">
            <mxPoint x="270" y="-340" as="sourcePoint" />
            <mxPoint x="240" y="-360" as="targetPoint" />
          </mxGeometry>
        </mxCell>
        <mxCell id="Dj1RgWxKYQ5l88ZMFCV0-101" value="&lt;font style=&quot;font-size: 14px;&quot;&gt;Descricao&lt;/font&gt;" style="text;html=1;align=center;verticalAlign=middle;whiteSpace=wrap;rounded=0;" parent="1" vertex="1">
          <mxGeometry x="175" y="-340" width="60" height="30" as="geometry" />
        </mxCell>
        <mxCell id="Dj1RgWxKYQ5l88ZMFCV0-102" value="" style="endArrow=oval;html=1;rounded=0;startArrow=none;startFill=0;endFill=0;strokeWidth=1;" parent="1" edge="1">
          <mxGeometry width="50" height="50" relative="1" as="geometry">
            <mxPoint x="270" y="-330" as="sourcePoint" />
            <mxPoint x="240" y="-321" as="targetPoint" />
          </mxGeometry>
        </mxCell>
        <mxCell id="Dj1RgWxKYQ5l88ZMFCV0-103" value="&lt;font style=&quot;font-size: 14px;&quot;&gt;Hora&lt;/font&gt;" style="text;html=1;align=center;verticalAlign=middle;whiteSpace=wrap;rounded=0;" parent="1" vertex="1">
          <mxGeometry x="210" y="-385" width="60" height="30" as="geometry" />
        </mxCell>
        <mxCell id="Dj1RgWxKYQ5l88ZMFCV0-104" value="Historico_Versao" style="whiteSpace=wrap;html=1;align=center;strokeWidth=1;perimeterSpacing=0;" parent="1" vertex="1">
          <mxGeometry x="1390" y="-490" width="250" height="50" as="geometry" />
        </mxCell>
        <mxCell id="Dj1RgWxKYQ5l88ZMFCV0-105" value="&lt;font style=&quot;font-size: 14px;&quot;&gt;ID&lt;/font&gt;" style="text;html=1;align=center;verticalAlign=middle;whiteSpace=wrap;rounded=0;" parent="1" vertex="1">
          <mxGeometry x="1360" y="-550" width="60" height="30" as="geometry" />
        </mxCell>
        <mxCell id="Dj1RgWxKYQ5l88ZMFCV0-106" value="" style="endArrow=oval;html=1;rounded=0;startArrow=none;startFill=0;endFill=1;strokeWidth=1;" parent="1" edge="1">
          <mxGeometry width="50" height="50" relative="1" as="geometry">
            <mxPoint x="1390" y="-490" as="sourcePoint" />
            <mxPoint x="1390" y="-520" as="targetPoint" />
          </mxGeometry>
        </mxCell>
        <mxCell id="Dj1RgWxKYQ5l88ZMFCV0-107" value="" style="endArrow=oval;html=1;rounded=0;startArrow=none;startFill=0;endFill=0;strokeWidth=1;" parent="1" target="Dj1RgWxKYQ5l88ZMFCV0-108" edge="1">
          <mxGeometry width="50" height="50" relative="1" as="geometry">
            <mxPoint x="1420" y="-490" as="sourcePoint" />
            <mxPoint x="1420" y="-520" as="targetPoint" />
          </mxGeometry>
        </mxCell>
        <mxCell id="Dj1RgWxKYQ5l88ZMFCV0-108" value="&lt;font style=&quot;font-size: 14px;&quot;&gt;Data&lt;/font&gt;" style="text;html=1;align=center;verticalAlign=middle;whiteSpace=wrap;rounded=0;" parent="1" vertex="1">
          <mxGeometry x="1390" y="-550" width="60" height="30" as="geometry" />
        </mxCell>
        <mxCell id="Dj1RgWxKYQ5l88ZMFCV0-109" value="" style="endArrow=oval;html=1;rounded=0;startArrow=none;startFill=0;endFill=0;strokeWidth=1;" parent="1" edge="1">
          <mxGeometry width="50" height="50" relative="1" as="geometry">
            <mxPoint x="1459.5" y="-490" as="sourcePoint" />
            <mxPoint x="1459.5" y="-520" as="targetPoint" />
          </mxGeometry>
        </mxCell>
        <mxCell id="Dj1RgWxKYQ5l88ZMFCV0-110" value="&lt;font style=&quot;font-size: 14px;&quot;&gt;Hora&lt;/font&gt;" style="text;html=1;align=center;verticalAlign=middle;whiteSpace=wrap;rounded=0;" parent="1" vertex="1">
          <mxGeometry x="1430" y="-550" width="60" height="30" as="geometry" />
        </mxCell>
        <mxCell id="Dj1RgWxKYQ5l88ZMFCV0-111" value="" style="endArrow=oval;html=1;rounded=0;startArrow=none;startFill=0;endFill=0;strokeWidth=1;" parent="1" edge="1">
          <mxGeometry width="50" height="50" relative="1" as="geometry">
            <mxPoint x="1514.5" y="-490" as="sourcePoint" />
            <mxPoint x="1514.5" y="-520" as="targetPoint" />
          </mxGeometry>
        </mxCell>
        <mxCell id="Dj1RgWxKYQ5l88ZMFCV0-112" value="&lt;font style=&quot;font-size: 14px;&quot;&gt;Operacao&lt;/font&gt;" style="text;html=1;align=center;verticalAlign=middle;whiteSpace=wrap;rounded=0;" parent="1" vertex="1">
          <mxGeometry x="1485" y="-550" width="60" height="30" as="geometry" />
        </mxCell>
        <mxCell id="Dj1RgWxKYQ5l88ZMFCV0-113" value="" style="endArrow=oval;html=1;rounded=0;startArrow=none;startFill=0;endFill=0;strokeWidth=1;" parent="1" edge="1">
          <mxGeometry width="50" height="50" relative="1" as="geometry">
            <mxPoint x="1640" y="-485.5" as="sourcePoint" />
            <mxPoint x="1670" y="-485.5" as="targetPoint" />
          </mxGeometry>
        </mxCell>
        <mxCell id="Dj1RgWxKYQ5l88ZMFCV0-114" value="&lt;font style=&quot;font-size: 14px;&quot;&gt;ID_Usuario&lt;/font&gt;" style="text;html=1;align=center;verticalAlign=middle;whiteSpace=wrap;rounded=0;" parent="1" vertex="1">
          <mxGeometry x="1560" y="-550" width="60" height="30" as="geometry" />
        </mxCell>
        <mxCell id="Dj1RgWxKYQ5l88ZMFCV0-115" value="" style="endArrow=oval;html=1;rounded=0;startArrow=none;startFill=0;endFill=1;strokeWidth=1;" parent="1" edge="1">
          <mxGeometry width="50" height="50" relative="1" as="geometry">
            <mxPoint x="1589.5" y="-490" as="sourcePoint" />
            <mxPoint x="1589.5" y="-520" as="targetPoint" />
          </mxGeometry>
        </mxCell>
        <mxCell id="Dj1RgWxKYQ5l88ZMFCV0-117" value="&lt;font style=&quot;font-size: 14px;&quot;&gt;Conteudo_Alterado&lt;/font&gt;" style="text;html=1;align=center;verticalAlign=middle;whiteSpace=wrap;rounded=0;" parent="1" vertex="1">
          <mxGeometry x="1710" y="-500" width="60" height="30" as="geometry" />
        </mxCell>
        <mxCell id="8dEnHC_HawkJv2hlEM2R-1" value="&lt;font style=&quot;font-size: 12px;&quot;&gt;Operação&lt;/font&gt;" style="whiteSpace=wrap;html=1;align=center;strokeWidth=1;perimeterSpacing=0;" parent="1" vertex="1">
          <mxGeometry x="689.5" y="-530" width="180" height="50" as="geometry" />
        </mxCell>
        <mxCell id="8dEnHC_HawkJv2hlEM2R-2" value="&lt;font style=&quot;font-size: 14px;&quot;&gt;ID_Arquivo&lt;/font&gt;" style="text;html=1;align=center;verticalAlign=middle;whiteSpace=wrap;rounded=0;" parent="1" vertex="1">
          <mxGeometry x="659.5" y="-590" width="60" height="30" as="geometry" />
        </mxCell>
        <mxCell id="8dEnHC_HawkJv2hlEM2R-3" value="" style="endArrow=oval;html=1;rounded=0;startArrow=none;startFill=0;endFill=1;strokeWidth=1;" parent="1" edge="1">
          <mxGeometry width="50" height="50" relative="1" as="geometry">
            <mxPoint x="689.5" y="-530" as="sourcePoint" />
            <mxPoint x="689.5" y="-560" as="targetPoint" />
          </mxGeometry>
        </mxCell>
        <mxCell id="8dEnHC_HawkJv2hlEM2R-4" value="&lt;font style=&quot;font-size: 14px;&quot;&gt;Hora&lt;/font&gt;" style="text;html=1;align=center;verticalAlign=middle;whiteSpace=wrap;rounded=0;" parent="1" vertex="1">
          <mxGeometry x="797" y="-590" width="60" height="30" as="geometry" />
        </mxCell>
        <mxCell id="8dEnHC_HawkJv2hlEM2R-5" value="" style="endArrow=oval;html=1;rounded=0;startArrow=none;startFill=0;endFill=0;strokeWidth=1;" parent="1" edge="1">
          <mxGeometry width="50" height="50" relative="1" as="geometry">
            <mxPoint x="779.5" y="-530" as="sourcePoint" />
            <mxPoint x="779.5" y="-560" as="targetPoint" />
          </mxGeometry>
        </mxCell>
        <mxCell id="8dEnHC_HawkJv2hlEM2R-6" value="&lt;font style=&quot;font-size: 14px;&quot;&gt;Data&lt;/font&gt;" style="text;html=1;align=center;verticalAlign=middle;whiteSpace=wrap;rounded=0;" parent="1" vertex="1">
          <mxGeometry x="749.5" y="-590" width="60" height="30" as="geometry" />
        </mxCell>
        <mxCell id="8dEnHC_HawkJv2hlEM2R-7" value="" style="endArrow=oval;html=1;rounded=0;startArrow=none;startFill=0;endFill=0;strokeWidth=1;" parent="1" edge="1">
          <mxGeometry width="50" height="50" relative="1" as="geometry">
            <mxPoint x="826" y="-530" as="sourcePoint" />
            <mxPoint x="826" y="-560" as="targetPoint" />
          </mxGeometry>
        </mxCell>
        <mxCell id="8dEnHC_HawkJv2hlEM2R-21" style="edgeStyle=orthogonalEdgeStyle;rounded=0;orthogonalLoop=1;jettySize=auto;html=1;exitX=0;exitY=0.5;exitDx=0;exitDy=0;entryX=1;entryY=0.5;entryDx=0;entryDy=0;endArrow=none;endFill=0;" parent="1" source="8dEnHC_HawkJv2hlEM2R-20" target="Dj1RgWxKYQ5l88ZMFCV0-2" edge="1">
          <mxGeometry relative="1" as="geometry" />
        </mxCell>
        <mxCell id="8dEnHC_HawkJv2hlEM2R-22" style="edgeStyle=orthogonalEdgeStyle;rounded=0;orthogonalLoop=1;jettySize=auto;html=1;exitX=1;exitY=0.5;exitDx=0;exitDy=0;entryX=0;entryY=0.5;entryDx=0;entryDy=0;endArrow=none;endFill=0;" parent="1" source="8dEnHC_HawkJv2hlEM2R-20" target="Dj1RgWxKYQ5l88ZMFCV0-14" edge="1">
          <mxGeometry relative="1" as="geometry" />
        </mxCell>
        <mxCell id="8dEnHC_HawkJv2hlEM2R-20" value="POSSUI" style="rhombus;whiteSpace=wrap;html=1;" parent="1" vertex="1">
          <mxGeometry x="733.5" y="-713.75" width="93" height="57.5" as="geometry" />
        </mxCell>
        <mxCell id="8dEnHC_HawkJv2hlEM2R-30" style="edgeStyle=orthogonalEdgeStyle;rounded=0;orthogonalLoop=1;jettySize=auto;html=1;exitX=0;exitY=0.5;exitDx=0;exitDy=0;entryX=0.75;entryY=1;entryDx=0;entryDy=0;endArrow=none;endFill=0;" parent="1" source="8dEnHC_HawkJv2hlEM2R-29" target="Dj1RgWxKYQ5l88ZMFCV0-14" edge="1">
          <mxGeometry relative="1" as="geometry" />
        </mxCell>
        <mxCell id="8dEnHC_HawkJv2hlEM2R-31" style="edgeStyle=orthogonalEdgeStyle;rounded=0;orthogonalLoop=1;jettySize=auto;html=1;exitX=1;exitY=0.5;exitDx=0;exitDy=0;entryX=0;entryY=0.5;entryDx=0;entryDy=0;endArrow=none;endFill=0;" parent="1" source="8dEnHC_HawkJv2hlEM2R-29" target="Dj1RgWxKYQ5l88ZMFCV0-104" edge="1">
          <mxGeometry relative="1" as="geometry" />
        </mxCell>
        <mxCell id="8dEnHC_HawkJv2hlEM2R-29" value="POSSUI" style="rhombus;whiteSpace=wrap;html=1;" parent="1" vertex="1">
          <mxGeometry x="1167" y="-547.5" width="93" height="57.5" as="geometry" />
        </mxCell>
        <mxCell id="8dEnHC_HawkJv2hlEM2R-33" value="" style="endArrow=oval;html=1;rounded=0;startArrow=none;startFill=0;endFill=0;strokeWidth=1;" parent="1" edge="1">
          <mxGeometry width="50" height="50" relative="1" as="geometry">
            <mxPoint x="432" y="-660" as="sourcePoint" />
            <mxPoint x="418" y="-630" as="targetPoint" />
            <Array as="points">
              <mxPoint x="418" y="-660" />
            </Array>
          </mxGeometry>
        </mxCell>
        <mxCell id="8dEnHC_HawkJv2hlEM2R-36" value="FAZ" style="rhombus;whiteSpace=wrap;html=1;" parent="1" vertex="1">
          <mxGeometry x="185" y="-727" width="93" height="57.5" as="geometry" />
        </mxCell>
        <mxCell id="8dEnHC_HawkJv2hlEM2R-40" value="TEM" style="rhombus;whiteSpace=wrap;html=1;" parent="1" vertex="1">
          <mxGeometry x="185" y="-560" width="93" height="57.5" as="geometry" />
        </mxCell>
        <mxCell id="8dEnHC_HawkJv2hlEM2R-45" style="edgeStyle=orthogonalEdgeStyle;rounded=0;orthogonalLoop=1;jettySize=auto;html=1;exitX=0.5;exitY=1;exitDx=0;exitDy=0;entryX=0.5;entryY=0;entryDx=0;entryDy=0;endArrow=none;endFill=0;" parent="1" source="8dEnHC_HawkJv2hlEM2R-43" target="Dj1RgWxKYQ5l88ZMFCV0-65" edge="1">
          <mxGeometry relative="1" as="geometry" />
        </mxCell>
        <mxCell id="8dEnHC_HawkJv2hlEM2R-43" value="ADERE" style="rhombus;whiteSpace=wrap;html=1;" parent="1" vertex="1">
          <mxGeometry x="-121.5" y="-330" width="93" height="57.5" as="geometry" />
        </mxCell>
        <mxCell id="8dEnHC_HawkJv2hlEM2R-51" style="edgeStyle=orthogonalEdgeStyle;rounded=0;orthogonalLoop=1;jettySize=auto;html=1;exitX=0.5;exitY=1;exitDx=0;exitDy=0;exitPerimeter=0;entryX=0.5;entryY=0;entryDx=0;entryDy=0;endArrow=none;endFill=0;" parent="1" source="8dEnHC_HawkJv2hlEM2R-47" target="Dj1RgWxKYQ5l88ZMFCV0-82" edge="1">
          <mxGeometry relative="1" as="geometry" />
        </mxCell>
        <mxCell id="8dEnHC_HawkJv2hlEM2R-47" value="SUPORTE" style="strokeWidth=1;html=1;shape=mxgraph.flowchart.decision;whiteSpace=wrap;fillColor=default;" parent="1" vertex="1">
          <mxGeometry x="257.5" y="-360" width="115" height="50" as="geometry" />
        </mxCell>
        <mxCell id="8dEnHC_HawkJv2hlEM2R-48" style="edgeStyle=orthogonalEdgeStyle;rounded=0;orthogonalLoop=1;jettySize=auto;html=1;exitX=0.25;exitY=1;exitDx=0;exitDy=0;entryX=0.5;entryY=0;entryDx=0;entryDy=0;entryPerimeter=0;endArrow=none;endFill=0;" parent="1" source="Dj1RgWxKYQ5l88ZMFCV0-2" target="8dEnHC_HawkJv2hlEM2R-47" edge="1">
          <mxGeometry relative="1" as="geometry" />
        </mxCell>
        <mxCell id="8dEnHC_HawkJv2hlEM2R-50" value="" style="endArrow=oval;html=1;rounded=0;startArrow=none;startFill=0;endFill=0;strokeWidth=1;" parent="1" edge="1">
          <mxGeometry width="50" height="50" relative="1" as="geometry">
            <mxPoint x="503.5" y="-90" as="sourcePoint" />
            <mxPoint x="503" y="-50" as="targetPoint" />
          </mxGeometry>
        </mxCell>
        <mxCell id="8dEnHC_HawkJv2hlEM2R-52" value="&lt;font style=&quot;font-size: 12px;&quot;&gt;(1,1)&lt;/font&gt;" style="text;html=1;align=center;verticalAlign=middle;whiteSpace=wrap;rounded=0;" parent="1" vertex="1">
          <mxGeometry x="599.5" y="-710" width="60" height="30" as="geometry" />
        </mxCell>
        <mxCell id="8dEnHC_HawkJv2hlEM2R-53" value="&lt;font style=&quot;font-size: 12px;&quot;&gt;(0,n)&lt;/font&gt;" style="text;html=1;align=center;verticalAlign=middle;whiteSpace=wrap;rounded=0;" parent="1" vertex="1">
          <mxGeometry x="900" y="-710" width="60" height="30" as="geometry" />
        </mxCell>
        <mxCell id="8dEnHC_HawkJv2hlEM2R-54" value="&lt;font style=&quot;font-size: 12px;&quot;&gt;(1,n)&lt;/font&gt;" style="text;html=1;align=center;verticalAlign=middle;whiteSpace=wrap;rounded=0;" parent="1" vertex="1">
          <mxGeometry x="471" y="-1018" width="60" height="30" as="geometry" />
        </mxCell>
        <mxCell id="8dEnHC_HawkJv2hlEM2R-55" value="&lt;font style=&quot;font-size: 12px;&quot;&gt;(1,1)&lt;/font&gt;" style="text;html=1;align=center;verticalAlign=middle;whiteSpace=wrap;rounded=0;" parent="1" vertex="1">
          <mxGeometry x="513" y="-743.75" width="60" height="30" as="geometry" />
        </mxCell>
        <mxCell id="8dEnHC_HawkJv2hlEM2R-56" value="&lt;font style=&quot;font-size: 12px;&quot;&gt;(0,n)&lt;/font&gt;" style="text;html=1;align=center;verticalAlign=middle;whiteSpace=wrap;rounded=0;" parent="1" vertex="1">
          <mxGeometry x="372.5" y="-727" width="60" height="30" as="geometry" />
        </mxCell>
        <mxCell id="8dEnHC_HawkJv2hlEM2R-57" value="&lt;font style=&quot;font-size: 12px;&quot;&gt;(0,n)&lt;/font&gt;" style="text;html=1;align=center;verticalAlign=middle;whiteSpace=wrap;rounded=0;" parent="1" vertex="1">
          <mxGeometry x="70" y="-780" width="60" height="30" as="geometry" />
        </mxCell>
        <mxCell id="8dEnHC_HawkJv2hlEM2R-58" value="&lt;font style=&quot;font-size: 12px;&quot;&gt;(1,1)&lt;/font&gt;" style="text;html=1;align=center;verticalAlign=middle;whiteSpace=wrap;rounded=0;" parent="1" vertex="1">
          <mxGeometry x="-10" y="-440" width="60" height="30" as="geometry" />
        </mxCell>
        <mxCell id="8dEnHC_HawkJv2hlEM2R-59" value="&lt;font style=&quot;font-size: 12px;&quot;&gt;(0,n)&lt;/font&gt;" style="text;html=1;align=center;verticalAlign=middle;whiteSpace=wrap;rounded=0;" parent="1" vertex="1">
          <mxGeometry x="270" y="-560" width="60" height="30" as="geometry" />
        </mxCell>
        <mxCell id="8dEnHC_HawkJv2hlEM2R-60" value="&lt;font style=&quot;font-size: 12px;&quot;&gt;(1,1)&lt;/font&gt;" style="text;html=1;align=center;verticalAlign=middle;whiteSpace=wrap;rounded=0;" parent="1" vertex="1">
          <mxGeometry x="-121.5" y="-220" width="60" height="30" as="geometry" />
        </mxCell>
        <mxCell id="8dEnHC_HawkJv2hlEM2R-61" value="&lt;font style=&quot;font-size: 12px;&quot;&gt;(0,n)&lt;/font&gt;" style="text;html=1;align=center;verticalAlign=middle;whiteSpace=wrap;rounded=0;" parent="1" vertex="1">
          <mxGeometry x="-86" y="-415" width="60" height="30" as="geometry" />
        </mxCell>
        <mxCell id="8dEnHC_HawkJv2hlEM2R-62" value="&lt;font style=&quot;font-size: 12px;&quot;&gt;(0,n)&lt;/font&gt;" style="text;html=1;align=center;verticalAlign=middle;whiteSpace=wrap;rounded=0;" parent="1" vertex="1">
          <mxGeometry x="429.5" y="-660" width="60" height="30" as="geometry" />
        </mxCell>
        <mxCell id="8dEnHC_HawkJv2hlEM2R-63" value="&lt;font style=&quot;font-size: 12px;&quot;&gt;(0,n)&lt;/font&gt;" style="text;html=1;align=center;verticalAlign=middle;whiteSpace=wrap;rounded=0;" parent="1" vertex="1">
          <mxGeometry x="450" y="-170" width="60" height="30" as="geometry" />
        </mxCell>
        <mxCell id="8dEnHC_HawkJv2hlEM2R-64" value="&lt;font style=&quot;font-size: 12px;&quot;&gt;(1,1)&lt;/font&gt;" style="text;html=1;align=center;verticalAlign=middle;whiteSpace=wrap;rounded=0;" parent="1" vertex="1">
          <mxGeometry x="1130" y="-660" width="60" height="30" as="geometry" />
        </mxCell>
        <mxCell id="8dEnHC_HawkJv2hlEM2R-65" value="&lt;font style=&quot;font-size: 12px;&quot;&gt;(1,n)&lt;/font&gt;" style="text;html=1;align=center;verticalAlign=middle;whiteSpace=wrap;rounded=0;" parent="1" vertex="1">
          <mxGeometry x="1340" y="-490" width="60" height="30" as="geometry" />
        </mxCell>
        <mxCell id="8dEnHC_HawkJv2hlEM2R-67" style="edgeStyle=orthogonalEdgeStyle;rounded=0;orthogonalLoop=1;jettySize=auto;html=1;exitX=1;exitY=0.5;exitDx=0;exitDy=0;entryX=0;entryY=0.5;entryDx=0;entryDy=0;endArrow=none;endFill=0;" parent="1" source="8dEnHC_HawkJv2hlEM2R-66" target="8dEnHC_HawkJv2hlEM2R-1" edge="1">
          <mxGeometry relative="1" as="geometry" />
        </mxCell>
        <mxCell id="8dEnHC_HawkJv2hlEM2R-68" style="edgeStyle=orthogonalEdgeStyle;rounded=0;orthogonalLoop=1;jettySize=auto;html=1;exitX=0.5;exitY=0;exitDx=0;exitDy=0;entryX=0.5;entryY=1;entryDx=0;entryDy=0;endArrow=none;endFill=0;" parent="1" source="8dEnHC_HawkJv2hlEM2R-66" target="Dj1RgWxKYQ5l88ZMFCV0-2" edge="1">
          <mxGeometry relative="1" as="geometry" />
        </mxCell>
        <mxCell id="8dEnHC_HawkJv2hlEM2R-66" value="OPERA" style="rhombus;whiteSpace=wrap;html=1;" parent="1" vertex="1">
          <mxGeometry x="510" y="-533.75" width="93" height="57.5" as="geometry" />
        </mxCell>
        <mxCell id="8dEnHC_HawkJv2hlEM2R-69" value="&lt;font style=&quot;font-size: 12px;&quot;&gt;(1,n)&lt;/font&gt;" style="text;html=1;align=center;verticalAlign=middle;whiteSpace=wrap;rounded=0;" parent="1" vertex="1">
          <mxGeometry x="510" y="-660" width="60" height="30" as="geometry" />
        </mxCell>
        <mxCell id="8dEnHC_HawkJv2hlEM2R-70" value="&lt;font style=&quot;font-size: 12px;&quot;&gt;(1,n)&lt;/font&gt;" style="text;html=1;align=center;verticalAlign=middle;whiteSpace=wrap;rounded=0;" parent="1" vertex="1">
          <mxGeometry x="640" y="-530" width="60" height="30" as="geometry" />
        </mxCell>
        <mxCell id="gyq8oH-FY3zFHfNfD0Om-1" value="" style="endArrow=oval;html=1;rounded=0;startArrow=none;startFill=0;endFill=0;strokeWidth=1;" parent="1" edge="1">
          <mxGeometry width="50" height="50" relative="1" as="geometry">
            <mxPoint x="869.5" y="-515.5" as="sourcePoint" />
            <mxPoint x="907.5" y="-515.5" as="targetPoint" />
          </mxGeometry>
        </mxCell>
        <mxCell id="gyq8oH-FY3zFHfNfD0Om-2" value="&lt;font style=&quot;font-size: 14px;&quot;&gt;Tipo_Operacao&lt;/font&gt;" style="text;html=1;align=center;verticalAlign=middle;whiteSpace=wrap;rounded=0;" parent="1" vertex="1">
          <mxGeometry x="934.5" y="-530" width="60" height="30" as="geometry" />
        </mxCell>
        <mxCell id="gyq8oH-FY3zFHfNfD0Om-3" value="Destinatário" style="whiteSpace=wrap;html=1;align=center;strokeWidth=1;perimeterSpacing=0;" parent="1" vertex="1">
          <mxGeometry x="430" y="-1071" width="180" height="50" as="geometry" />
        </mxCell>
      </root>
    </mxGraphModel>
  </diagram>
</mxfile>
